<svg width="610" height="900" xmlns="http://www.w3.org/2000/svg"><g stroke="#1D1D1D" fill="none" fill-rule="evenodd" stroke-linecap="round" stroke-linejoin="round"><path d="M479.177 1c-1.941 2.22-4.093 4.29-5.793 6.683-12.137 17.093-23.6 34.687-32.347 53.734-10.363 22.566-20.276 45.326-31.735 67.38-9.11 17.533-15.897 36.075-22.966 54.488-2.112 5.505-4.592 10.877-7.087 16.223-.784 1.678-1.971 3.287-3.322 4.556-2.546 2.393-5.768 2.49-8.23-.002-3.794-3.84-7.254-8.008-10.873-12.02-4.011-4.45-7.794-9.142-12.115-13.27-10.687-10.207-24.559-8.182-35.707-1.658-12.807 7.494-21.877 18.729-29.574 31.163-5.309 8.578-10.44 17.268-15.877 25.763-2.008 3.138-4.783 5.775-6.99 8.798-3.555 4.869-10.534 5.323-15.794.755-3.99-3.463-7.82-7.197-11.235-11.222-13.946-16.437-29.99-30.189-49.583-39.477-8.14-3.86-16.757-6.665-25.784-6.146-17.15.987-28.253 11.21-29.11 29.433-.683 14.476 5.141 26.707 13.712 37.868 11.45 14.909 27.672 22.13 44.958 27.409 7.648 2.336 15.506 3.993 23.287 5.883 9.451 2.296 18.732 1.147 27.875-1.672 5.49-1.693 11.15-3.515 16.154.534 3.473 2.81 7.15 6.096 9.02 9.992 3.148 6.559 5.58 13.634 7.08 20.752 1.128 5.355-.34 10.988-3.552 15.759-3.024 4.49-5.975 5.631-11.206 4.131-4.084-1.17-8.07-2.7-12.078-4.124-10.185-3.616-20.41-3.632-30.354.49-10.595 4.393-20.563 9.88-28.786 18.203-6.588 6.669-10.118 14.744-11.082 23.778-1.046 9.797-1.794 19.697-1.64 29.537.224 14.311 4.88 27.344 14.914 37.812 8.548 8.917 17.546 17.424 26.651 25.776 2.776 2.546 6.397 4.436 9.945 5.81 4.953 1.918 8.626.153 11.192-4.469 3.808-6.862 4.577-14.584 6.258-22.055 3.221-14.306 6.682-28.569 14.63-41.157 1.966-3.112 4.748-5.779 7.458-8.327 3.03-2.85 6.677-2.134 9.899-.383 2.304 1.252 4.39 3.065 6.256 4.943 13.39 13.48 28.494 24.462 45.321 33.4 16.151 8.577 30.931 19.36 45.064 31.025 7.228 5.965 14.58 11.898 23.668 15.054 14.84 5.154 25.146-.79 30.347-13.763 5.2-12.966 4.771-26.168 1.33-39.536-4.664-18.121-15.484-32.75-26.268-47.432-11.267-15.342-21.385-31.308-27.472-49.53-3.975-11.899-6.457-24.1-5.288-36.619 1.348-14.423 5.045-28.33 11.973-41.206.855-1.59 1.74-3.232 2.934-4.555 3.226-3.571 6.778-5.504 12.067-3.892 8.633 2.63 16.293 7.04 24.146 11.27 12.921 6.96 24.39 15.653 32.267 28.063 5.496 8.661 9.757 18.133 14.259 27.394 6.802 13.997 15.17 26.842 26.698 37.412 5.613 5.147 11.777 9.352 19.526 10.896 11.107 2.215 19.445-2.361 26.18-10.492 7.753-9.36 10.924-20.633 13.025-32.411 2.593-14.535 1.302-29.142 1.52-43.717.112-7.486-.93-14.999-.646-22.47.318-8.344 1.896-16.636 2.284-24.981.42-8.999.703-18.083-.048-27.037-1.11-13.227-3.472-26.344-4.76-39.56-1.01-10.362-1.536-20.798-1.673-31.209-.178-13.695-1.11-27.256-3.29-40.807-1.99-12.38-4.38-24.623-8.05-36.6-3.243-10.585-7.715-20.67-13.77-29.936-4.565-6.988-9.652-13.634-14.508-20.432"/><path d="M457.586 1c-1.251 2.218-2.593 4.391-3.738 6.662-7.12 14.128-14.479 28.146-21.2 42.461-6.097 12.986-11.236 26.418-17.254 39.444a745.126 745.126 0 0 1-17.942 36.18c-4.593 8.674-9.75 17.071-15.026 25.356-1.916 3.006-4.658 5.642-7.468 7.894-5.108 4.095-10.972 3.075-16.61 1.264-4.809-1.546-9.35-4.017-14.22-5.255-9.294-2.362-18.651-1.64-27.472 2.048-14.692 6.14-26.298 16.423-36.764 28.186-6.198 6.968-12.375 14.03-19.247 20.305-7.773 7.098-14.664 7.841-23.61 3.315-8.763-4.434-17.035-9.837-25.497-14.859-13.42-7.963-27.402-14.779-42.566-18.614-12.93-3.272-25.869-3.286-37.914 3.664-10.6 6.115-16.511 15.524-18.328 27.44-3.283 21.52 4.898 39.853 16.706 56.942 7.968 11.533 18.534 20.597 29.513 29.206 3.31 2.594 6.315 5.628 9.179 8.72 4.948 5.343 5.213 12.354-.077 17.318-4.315 4.05-9.5 7.237-14.518 10.464-4.704 3.025-9.784 5.461-14.541 8.409-6.196 3.837-7.407 9.749-4.606 17.018 3.047 7.908 6.656 15.651 9.003 23.76 1.937 6.695 3.106 13.789 3.37 20.754.766 20.161 5.347 38.92 18.952 54.443 14.463 16.5 27.46 34.07 40.077 51.974 2.85 4.044 6.717 7.425 10.364 10.848 7.46 7.001 15.823 5.344 23.322.029 10.935-7.75 16.074-18.917 18.301-31.62 1.646-9.383 2.56-18.899 4.342-28.253.819-4.295 2.324-8.716 4.597-12.423 4.48-7.302 11.83-9.756 20.3-7.552 21.71 5.647 41.379 15.46 58.762 29.573 10.39 8.438 20.18 17.613 30.548 26.08 6.4 5.224 13.666 8.956 22.03 10.545 11.489 2.184 20.29-2.088 27.512-10.495 6.861-7.987 9.777-17.649 11.29-27.847 3.754-25.298-2.637-48.29-16.336-69.423-6.988-10.783-14.884-20.977-21.982-31.692-8.945-13.506-15.894-27.934-18.845-44.053-1.876-10.245-2.248-20.422 1.313-30.356 4.766-13.299 15-19.166 29.604-12.143 10.496 5.047 17.54 13.34 23.29 22.963 7.911 13.237 15.044 26.97 23.546 39.81 8.27 12.492 17.784 24.16 30.269 32.988 7.046 4.982 14.738 8.328 23.372 8.638 11.795.423 21.567-4.588 29.561-12.863 11.199-11.591 16.62-26.022 19.674-41.548 2.057-10.459 2.631-20.99 2.512-31.62-.155-13.863-.317-27.738.074-41.592.214-7.644 1.584-15.253 2.385-22.882 1.575-15.026 2.56-29.98-1.154-44.946-2.826-11.394-5.015-22.959-7.086-34.52-.851-4.75-.828-9.686-.892-14.542-.127-9.704-.013-19.41-.043-29.116-.045-14.228-2.634-28.104-5.305-42.034-4.081-21.276-13.275-40.45-23.06-59.456-.88-1.71-1.934-3.334-2.907-4.997"/><path d="M465.818 1c-1.11 1.804-2.308 3.56-3.316 5.42-7.52 13.865-15.398 27.555-22.387 41.684-7.157 14.466-13.271 29.445-20.14 44.058-7.155 15.223-14.534 30.344-22.064 45.384-5.753 11.489-11.876 22.792-17.888 34.15-.64 1.211-1.541 2.325-2.487 3.33-6.303 6.703-9.486 7.921-18.333 1.722-5.67-3.974-11.282-8.314-17.538-11.102-9.437-4.208-19.282-3.107-28.635 1.096-11.5 5.167-20.805 13.255-28.692 22.91-7.445 9.113-14.017 18.974-21.83 27.74-7.78 8.728-15.542 12.152-27.298 4.206-11.197-7.566-21.703-16.169-33.017-23.543-12.087-7.88-24.988-14.13-39.459-16.875-12.533-2.377-23.904-.234-33.644 7.724-6.81 5.564-10.14 13.617-10.869 22.364-1.615 19.409 5.742 35.679 17.783 50.428 7.945 9.735 17.948 16.561 28.794 22.426 5.954 3.22 12.087 6.14 17.847 9.671 3.758 2.304 7.029 5.42 10.455 8.247 6.488 5.353 6.09 12.485.746 18.223-4.536 4.87-9.655 9.288-14.955 13.331-6.617 5.046-13.447 9.79-18.23 16.755-2.895 4.215-4.208 8.996-4.198 14.136.02 11.243-.404 22.504.12 33.72.534 11.458.99 23.047 6.121 33.736 4.155 8.66 9.929 16.158 16.23 23.329 7.987 9.091 15.67 18.457 23.816 27.402 4.484 4.921 9.332 9.63 14.577 13.71 8.863 6.892 19.228 3.43 24.606-6.092 4.167-7.379 5.063-15.368 6.08-23.386 1.41-11.145 1.666-22.512 6.753-32.867 1.56-3.173 3.223-6.411 5.45-9.117 4.161-5.058 10.2-5.541 15.682-3.628 7.47 2.606 14.616 6.25 21.684 9.87 8.73 4.473 17.121 9.612 25.872 14.043 12.516 6.336 23.392 14.914 34.133 23.763 9.286 7.652 18.087 15.817 29.051 21.403 15.558 7.927 30.544 2.581 38.292-13.508 4.317-8.964 5.753-18.862 5.366-28.683-.688-17.465-5.886-33.72-15.72-48.282-7.755-11.485-16.017-22.633-23.643-34.201-9.507-14.418-16.956-29.86-19.984-47.022-2.786-15.784-2.313-31.257 5.716-45.82 3.247-5.889 7.138-10.351 14.188-11.74 4.819-.95 9.229.381 13.29 1.927 17.368 6.612 29.91 18.845 38.322 35.262 8.017 15.648 15.677 31.525 26.75 45.31 7.704 9.593 15.881 18.598 27.334 24.363 12.806 6.446 26.98 3.792 36.739-5.552 9.935-9.513 14.747-21.684 17.751-34.61 1.574-6.767 2.043-13.83 2.563-20.793.57-7.61.853-15.261.839-22.895-.015-8.744-.94-17.501-.655-26.227.327-10.01 1.536-19.99 2.384-29.982 1.291-15.22 1.384-30.33-1.977-45.407-2.106-9.448-3.463-19.094-4.586-28.717-.802-6.879-.705-13.866-.923-20.807-.322-10.269.096-20.613-1.012-30.792-1.383-12.706-3.807-25.313-6.121-37.9-3.594-19.54-12.374-37.03-22.032-54.13-1.744-3.088-3.6-6.112-5.404-9.165"/><path d="M535.517 1c3.331 7.353 6.548 14.76 10.015 22.048 7.197 15.133 11.686 31.047 15.085 47.433 4.404 21.24 4.354 42.666 3.955 64.12-.277 14.889 2.831 29.145 6.815 43.267 3.007 10.665 5.986 21.404 5.575 32.476-.352 9.467-2.346 18.87-3.55 28.31-.759 5.957-1.896 11.921-1.997 17.897-.278 16.366-.086 32.74-.099 49.11-.012 17.366-3.392 34.17-10.578 49.865-5.597 12.228-13.587 23.11-25.662 30.002-13.011 7.426-26.513 8.276-40.364 2.143-11.787-5.218-20.74-13.884-29.146-23.314-16.184-18.153-27.161-39.794-40.53-59.836-3.354-5.025-8.088-9.815-13.289-12.785-11.446-6.538-19.484-.246-21.872 11.025-2.68 12.642.721 24.46 5.26 36.23 6.557 17.008 17.648 31.16 28.086 45.674 10.499 14.597 18.239 30.401 21.36 47.97 3.376 19.008 2.678 38.053-5.268 56.14-5.41 12.31-13.744 21.889-27.46 24.88-9.345 2.037-18.574.236-26.543-5.004-7.167-4.713-14.077-9.99-20.387-15.794-10.949-10.072-21.351-20.791-33.852-28.97-11.394-7.455-23.865-12.528-37.424-14.637-6.423-1-13.982 3.006-17.5 9.15-3.331 5.82-4.549 12.243-5.366 18.741-1.996 15.858-5.993 31.035-14.147 44.968-3.31 5.657-7.142 11.346-6.578 18.282.286 3.523 1.156 7.339 2.926 10.335 4.307 7.295 10.862 12.66 17.355 17.973 11.12 9.1 21.028 19.309 27.832 32.081a80.417 80.417 0 0 1 9.165 30.773c1.058 11.772 1.391 23.615 2.637 35.363 1.376 12.986 3.527 25.893 7.843 38.292 6.436 18.484 12.383 37.17 19.719 55.293 7.843 19.38 15.197 39.167 27.781 56.21 6.856 9.284 14.147 18.273 21.635 27.058 12.059 14.152 21.057 29.86 25.72 47.917.698 2.702.873 5.539 1.289 8.314"/><path d="M545.978 1c2.218 5.134 4.233 10.367 6.692 15.382 8.375 17.08 13.826 35.071 17.476 53.7 3.238 16.532 4.106 33.246 3.148 49.945-1.327 23.103 3.173 45.006 11.855 66.155 5.745 13.994 6.135 27.997 2.495 42.5-2.587 10.312-4.523 20.789-6.7 31.203-.195.93-.026 1.936-.026 2.907 0 13.596.085 27.193-.02 40.788-.156 20.076-3.717 39.608-12.21 57.774-7.021 15.013-17.207 28-32.343 35.742-9.915 5.07-20.596 6.63-31.985 4.856-19.599-3.053-34.168-14.063-46.928-28.08-13.27-14.579-23.476-31.488-35.061-47.35-2.286-3.13-5.2-5.974-8.32-8.28-3.893-2.877-7.502-.83-7.818 4.068-.43 6.696 1.011 12.91 3.59 19.202 4.955 12.089 12.548 22.449 20.173 32.772 11.325 15.333 19.49 32.094 22.627 50.858 1.829 10.932 2.877 22.208 2.44 33.257-.678 17.117-4.01 33.785-14.272 48.322-7.269 10.296-16.866 17.059-29.188 18.961-10.78 1.665-21.15-1.134-30.29-7.004-11.755-7.549-21.263-17.714-30.89-27.751-12.06-12.573-25.202-23.99-42.818-27.79-10.289-2.218-19.233-1.28-23.559 12.787-2.582 8.405-3.713 17.245-6.016 25.748-2.58 9.524-5.744 18.89-8.66 28.323-2.935 9.494-1.108 18.165 5.039 25.767 6.306 7.8 13.102 15.203 19.477 22.95 11.288 13.714 18.613 29.294 20.76 47.018 1.188 9.806 1.668 19.697 2.573 29.541 1.37 14.928 3.112 29.74 7.794 44.15 6.562 20.201 14.29 39.889 23.356 59.085 5.992 12.684 11.79 25.462 17.473 38.288 6.465 14.592 16.217 26.958 26.282 39.071 10.806 13.007 20.152 26.87 25.629 42.947 2.333 6.847 3.44 14.113 5.104 21.188"/><path d="M559.8 1c6.05 13.252 12.665 26.33 16.525 40.408a313.332 313.332 0 0 1 7.47 34.95c1.59 10.288 2.205 20.773 2.54 31.194.286 8.861-1.017 17.783-.58 26.627.659 13.38 3.778 25.044 12.327 37.073 22.918 32.248 1.85 80.94-.284 87.826-1.498 4.832-2.619 9.925-2.901 14.958-.645 11.495-.35 23.042-1.02 34.534-1.196 20.577-4.756 40.794-13.797 59.461-8.973 18.529-21.787 34.01-40.74 43.239-6.566 3.198-13.803 4.644-21.168 5.65-10.843 1.483-21.188-.717-31.684-2.539-3.369-.584-7.079-.7-10.342.12-2.221.56-4.439 2.805-5.745 4.872-1.325 2.1-2.03 4.886-2.135 7.407-.474 11.507-.284 23.05-.997 34.536-1.246 20.01-5.23 39.291-16.983 56.202-9.068 13.049-21.176 20.94-37.064 23.384-15.228 2.344-28.263-2.609-40.38-10.95-10.715-7.379-18.932-17.413-27.493-27.028-7.595-8.531-15.674-16.433-26.266-21.189-9.148-4.106-15.604-2.582-20.272 3.408-2.258 2.9-3.677 6.71-4.612 10.331-2.63 10.197-4.76 20.522-7.189 30.771-2.834 11.958.494 22.402 7.498 32.06 7.6 10.479 15.667 20.666 21.24 32.461 5.181 10.97 8.804 22.433 9.969 34.544 1.013 10.526 1.655 21.088 2.546 31.626 1.65 19.495 6.228 38.277 14.165 56.181 8.256 18.623 16.662 37.18 24.965 55.782 6.688 14.985 13.042 30.162 22.543 43.664a587.518 587.518 0 0 0 19.567 26.222c12.288 15.552 19.154 33.481 23.641 52.487.667 2.823.61 5.815.888 8.728"/><path d="M448 0c-4.859 10.549-9.82 21.053-14.555 31.656-7.17 16.062-14.232 32.171-21.253 48.297-8.645 19.858-17.33 39.666-31.214 56.655-4.512 5.523-10.253 8.873-17.126 9.363-4.233.302-8.632-1.027-12.893-1.931-12.301-2.609-24.041-1.007-35.415 4.184-11.816 5.392-22.077 12.949-31.232 22.083-5.697 5.685-11.205 11.577-17.115 17.03-12.333 11.383-20.646 14.042-37.031 5.87-7.778-3.879-15.552-7.766-23.324-11.66-12.495-6.257-25.37-11.535-39.162-14.109-12.098-2.258-24.177-2.615-35.807 2.46-14.634 6.384-22.53 17.978-25.392 33.308-2.734 14.637.496 28.522 5.838 42.041 4.317 10.921 10.184 21.03 16.608 30.84 3.755 5.736 7.57 11.47 10.78 17.513 4.84 9.111 2.856 12.986-6.177 18.69-6.221 3.928-12.873 7.287-18.655 11.773-10.661 8.273-11.86 20.445-4.937 31.449 4.068 6.465 9.477 12.11 14.458 17.976 7.175 8.45 10.958 18.404 11.949 29.177 2.098 22.816 9.403 43.27 25.083 60.38 10.218 11.147 19.027 23.398 26.082 36.721 3.098 5.847 5.103 12.554 6.18 19.103.883 5.375-2.28 11.755-9.37 14.885-8.485 3.747-17.198 6.977-25.792 10.482-12.598 5.14-23.701 12.57-31.98 23.384-9.43 12.32-18.403 25.013-27.097 37.866-9.791 14.476-22.912 25.047-37.533 34.135-6.798 4.226-13.734 8.373-19.934 13.388-12.426 10.052-19.233 23.397-17.794 39.44 1.502 16.724 9.758 29.989 23.9 39.665 10.204 6.982 21.739 9.955 33.392 12.776 10.867 2.628 21.002 6.423 28.304 15.456 5.3 6.554 9.147 13.954 12.517 21.64 7.456 17.01 13.671 34.589 23.7 50.407 10.76 16.97 25.261 28.916 45.034 33.61 5.676 1.35 11.626 1.639 17.473 2.147 8.04.7 16.144.802 24.144 1.784 11.378 1.398 18.271 8.822 22.87 18.678 1.554 3.328 2.547 6.917 3.797 10.388"/><path d="M437 0c-3.747 8.467-7.57 16.9-11.225 25.407-7.683 17.883-15.2 35.837-22.937 53.697-5.594 12.915-11.13 25.912-19.996 37.038-5.125 6.43-10.692 12.682-19.535 13.687-5.358.61-10.829.158-16.222.558-6.261.462-12.58.895-18.717 2.124-10.967 2.193-20.478 7.799-29.562 14.08-10.247 7.085-19.455 15.4-28.37 24.083-3.168 3.084-6.873 5.622-10.363 8.373-8.675 6.838-18.139 6.687-27.88 2.899-16.956-6.593-33.716-13.727-50.851-19.809-10.208-3.622-21.062-5.622-31.995-5.077-25.618 1.278-46.153 13.767-51.987 43.653-1.874 9.597-.793 19.192 1.165 28.728 2.94 14.305 9.188 27.39 14.514 40.835 2.061 5.2 3.743 10.707 4.512 16.226.942 6.751-3.007 11.723-7.702 16.272-5.635 5.462-11.298 10.993-16.152 17.126-3.758 4.748-4.952 10.802-5.633 16.956-1.675 15.16 4.808 26.911 14.635 37.502 4.28 4.612 8.463 9.323 12.483 14.162 6.59 7.934 8.553 17.832 10.287 27.486 3.254 18.116 10.774 33.977 22.139 48.331 6.904 8.72 13.637 17.669 19.426 27.139 3.122 5.109 4.926 11.407 5.818 17.393 1.009 6.773-2.995 11.975-8.528 15.782-3.297 2.269-6.441 4.9-10.021 6.593-16.31 7.717-29.046 19.41-39.092 34.225-6.676 9.843-13.644 19.509-19.912 29.606-10.125 16.307-23.73 28.602-40.395 37.95-7.832 4.394-15.68 9.164-22.396 15.05-11.576 10.141-18.397 23.007-18.506 38.979-.177 25.781 12.576 43.47 34.187 55.79 8.807 5.02 18.577 7.285 28.31 9.559 12.563 2.934 24.157 7.846 31.051 19.278 5.137 8.519 9.013 17.838 13.016 26.99 6.958 15.91 13.27 32.084 23.734 46.232 12.406 16.779 28.611 27.253 49.18 30.73 8.276 1.4 16.656 2.177 24.965 3.402 12.45 1.834 21.495 8.326 26.645 19.965"/><path d="M424 0c-2.776 6.801-5.492 13.628-8.338 20.399-7.18 17.087-14.41 34.153-21.638 51.22-4.592 10.84-9.338 21.622-17.505 30.377-5.379 5.767-11.927 9.27-19.955 10.057-15.128 1.486-30.105 3.28-43.778 11.088-11.089 6.332-21.326 13.716-31.16 21.761-6.645 5.434-13.24 10.93-19.998 16.22-9.536 7.463-20.054 8.15-31.21 4.205-11.212-3.965-22.363-8.154-33.744-11.574-11.416-3.433-22.942-6.41-34.923-7.733-16.316-1.802-31.742-.124-46.233 8.029-15.316 8.618-23.975 21.864-27.953 38.725-2.09 8.859-2.34 17.87-1.345 26.639 1.15 10.115 4.102 20.035 6.441 30.002 1.798 7.667 4.26 15.2 5.658 22.934.945 5.226-.714 10.52-3.684 14.911-4.271 6.316-9.275 12.132-13.614 18.406-6.809 9.843-9.733 20.84-10.159 32.86-.634 17.82 5.624 32.681 17.147 45.847 5.39 6.159 10.682 12.473 15.348 19.184 5.252 7.553 7.17 16.607 9.668 25.333 4.084 14.27 10.689 27.234 19.508 39.186 4.93 6.681 9.943 13.472 13.639 20.854 6.26 12.505 3.82 20.491-6.568 28.982-16.151 13.202-28.425 29.395-39.149 47.085a553.851 553.851 0 0 1-23.336 35.368c-6.263 8.743-15.224 14.636-24.422 20.114-9.426 5.613-19.128 10.952-27.801 17.597-12.714 9.738-20.705 22.707-23.08 38.975-3.218 22.036 3.201 40.99 17.112 57.905 13.767 16.74 32.623 23.774 52.886 28.316 10.042 2.25 19.726 5.632 26.114 14.227 4.091 5.504 7.536 11.626 10.426 17.863 6.555 14.152 11.995 28.843 18.976 42.77 9.294 18.546 22.808 33.386 41.888 42.57 10.184 4.902 21.136 6.944 32.066 9.136 8.317 1.666 16.721 3.105 23.312 9.162"/><path d="M392 900c-3.244-13.621-9.554-25.571-19.124-35.843-12.075-12.962-26.753-22.563-41.19-32.51a150.001 150.001 0 0 1-12.475-9.585c-7.089-6.073-9.338-14.506-10.394-23.295-1.283-10.67-2.17-21.39-3.395-32.068-1.275-11.121-2.457-22.266-4.22-33.315-1.692-10.616-4.264-21.087-6.1-31.683-1.53-8.838-2.822-17.736-3.734-26.657-1.12-10.94-1.494-21.958-2.628-32.896-1.328-12.82-4.365-25.093-12.81-35.437-8.894-10.892-20.274-17.247-34.158-18.628-8.131-.808-16.366-1.02-24.54-.827-8.338.197-16.232-1.704-23.656-4.838-9.317-3.935-18.766-6.183-28.768-5.18-7.701.772-14.641 3.927-20.815 8.664-10.745 8.242-18.368 19.22-26.206 30-10.94 15.046-23.82 27.886-39.87 37.63-7.304 4.435-14.113 9.94-20.386 15.782-14.065 13.094-12.081 34.322 2.776 45.79 8.1 6.252 17.518 8.765 27.089 11.209 5.444 1.392 11.04 2.514 16.192 4.663 11.633 4.852 18.904 14.305 24.126 25.331 8.24 17.402 15.843 35.113 24.3 52.407 4.91 10.037 11.254 19.164 20.218 26.373 14.752 11.864 30.914 13.819 48.304 7.774 9.287-3.228 18.337-7.14 27.486-10.766 8.563-3.394 17.223-6.234 26.634-5.846 15.314.634 19.91 7.312 21.47 19.617 1.359 10.729 1.31 21.64 1.819 32.472.34 7.218.568 14.441.844 21.662"/><path d="M406 900c-.845-7.315-3.35-14.088-6.167-20.865-5.858-14.105-15.16-25.705-25.491-36.62-14.27-15.077-27.46-31.006-35.277-50.467-7.168-17.85-14.061-35.863-19.915-54.176-5.685-17.79-10.103-35.998-14.627-54.137-1.37-5.49-1.195-11.361-1.801-17.05-1.475-13.878-1.02-27.911-4.078-41.68-4.384-19.728-14.55-35.518-31.371-46.55a692.6 692.6 0 0 0-42.508-25.753c-6.159-3.435-13.377-4.434-20.738-3.187-4.634.787-9.442.471-14.139.961-16.248 1.698-32.372 3.705-46.259 13.669-9.874 7.085-17.621 16.048-24.538 25.876-6.364 9.043-12.501 18.26-19.214 27.036-9.294 12.15-21.342 21.129-34.463 28.855-10.03 5.906-19.626 12.428-26.296 22.421-9.568 14.335-9.147 28.761-.793 43.342 7.368 12.86 19.214 19.646 32.896 23.714 7.29 2.169 14.78 3.678 22.04 5.929 12.392 3.842 21.13 12.149 26.613 23.718 5.933 12.524 11.26 25.333 17.173 37.866 6.948 14.733 13.93 29.469 26.163 40.88 9.364 8.734 20.136 14.603 32.932 15.677 8.132.681 16.37.019 24.556.159 7.914.134 15.923-.152 23.709.986 8.305 1.214 14.295 6.51 18.381 13.963 4.376 7.979 6.87 16.518 8.296 25.433"/><path d="M399 899c-2.59-10.433-6.039-20.563-12.155-29.493-3.677-5.37-7.657-10.62-12.099-15.366-7.506-8.022-15.383-15.71-23.29-23.345-16.27-15.709-25.62-35.267-31.605-56.615-4.449-15.87-8.578-31.834-12.506-47.839-3.593-14.636-7.033-29.325-9.924-44.111-1.352-6.917-1.155-14.126-1.823-21.188-1.293-13.655-.98-27.465-5.32-40.796-6.243-19.164-19.017-31.795-37.14-40-15.084-6.831-31.198-9.436-47.156-12.76-10.56-2.2-21.197-3.765-32.09-3.446-13.426.393-24.92 5.162-35.025 13.787-11.518 9.83-19.741 22.356-28.286 34.574-10.985 15.71-24.84 28.144-41.308 37.843-7.638 4.498-14.888 9.527-20.864 16.196-6.173 6.887-9.725 15.099-9.387 24.13.42 11.22 5.46 20.596 14.35 27.938 8.94 7.381 19.605 10.226 30.474 12.863 7.506 1.824 14.975 3.574 21.734 7.797 10.88 6.8 16.429 17.43 21.597 28.384 8.446 17.904 14.704 36.84 25.461 53.65 9.151 14.3 20.64 25.65 37.932 29.533 10.9 2.447 21.703 1.3 32.521-.788 8.684-1.674 17.247-3.913 26.256-3.874 12.681.055 21.79 7.894 25.874 17.136 4.113 9.309 6.045 19.098 7.065 29.133.226 2.224.549 4.438.826 6.657"/><path d="M384 899.581c-4.788-15.575-13.551-28.303-27.675-36.672-5.105-3.025-10.905-5.605-16.692-6.582-8.8-1.485-14.998 1.99-19 12.385-2.582 6.705-3.393 14.117-4.74 21.262-.618 3.281-.615 6.68-.893 10.026"/><path d="M373 899c-3.455-8.555-8.617-15.658-17.502-19.555-6.421-2.816-13.517-1.487-16.983 3.726-3.138 4.719-5.282 10.018-5.515 15.829M487.126 13.091c-8.625 3.097-14.208 9.786-19.585 16.662-11.178 14.29-19.391 30.287-27.184 46.58-10.016 20.943-20.845 41.501-30.689 62.521-8.617 18.395-15.066 37.582-18.086 57.807-1.141 7.637-2.419 15.15-.855 22.918 1.099 5.462 3.563 10.042 7.165 14.136 6.26 7.114 14.325 11.873 22.049 17.142 8.694 5.93 17.294 12.068 25.403 18.759 7.891 6.512 12.393 15.713 16.231 24.924 5.868 14.08 11.784 28.086 22.301 39.42 4.059 4.374 8.609 8.715 13.768 11.566 13.14 7.259 24.618 2.815 31.955-10.27 5.176-9.233 7.471-19.398 7.967-29.94.36-7.628.834-15.264.792-22.895-.074-13.599-.886-27.203-.647-40.793.176-10.002 1.904-19.97 2.247-29.978.237-6.915-.581-13.882-1.163-20.806-.514-6.12-1.257-12.227-2.065-18.317-1.947-14.662-1.188-29.416-1.764-44.123-.877-22.385-4.417-44.467-9.939-66.18-4.127-16.226-10.636-31.296-22.877-43.318-4.084-4.011-8.723-6.415-14.607-5.815"/><path d="M486.737 30.027c-10.124 2.858-16.55 10.169-22.482 18.297-10.78 14.775-18.278 31.353-26.582 47.502-5.82 11.318-12.068 22.415-17.802 33.775-9.058 17.946-16.322 36.501-19.26 56.613-1.364 9.34-2.503 18.658-.62 27.901 2.332 11.467 9.255 20.02 19.019 26.247 8.398 5.357 16.775 10.765 25.364 15.802 15.012 8.806 24.075 21.874 29.177 38.33 2.797 9.025 6.48 17.81 12.341 25.454 4.384 5.72 9.053 11.007 16.217 13.333 5.698 1.85 11.406.06 15.41-4.57 5.311-6.143 7.714-13.608 8.52-21.288 1.012-9.641 1.05-19.424.917-29.138-.126-9.17-1.573-18.338-1.42-27.49.165-9.869 1.801-19.705 2.257-29.58.409-8.867.087-17.77.087-26.655 0-.555.007-1.111-.002-1.667-.276-16.383-.734-32.766-.783-49.152-.055-18.58-2.206-36.897-6.329-54.971-2.514-11.028-5-22.106-8.418-32.869-2.767-8.715-7.017-16.839-14.75-22.617-3.237-2.418-6.56-3.47-10.445-3.257"/><path d="M483.749 48.134c-7.65 1.905-12.82 7.427-16.877 13.432-8.116 12.015-15.638 24.46-22.92 37.012-8.192 14.125-16.254 28.357-23.613 42.928-6.054 11.984-10.122 24.806-11.736 38.26-.664 5.541-1.552 11.103-1.6 16.661-.164 18.423 7.655 32.31 24.454 40.337 9.789 4.677 19.878 8.73 29.875 12.964 7.182 3.043 14.206 6.368 20.326 11.282 8.095 6.5 11.07 15.727 13.384 25.372.729 3.04 2.1 6.04 3.73 8.722 2.444 4.025 5.006 3.82 6.922-.4.675-1.485.888-3.31.847-4.969-.16-6.39-.467-12.777-.79-19.162-.669-13.178 2.214-25.914 4.513-38.75A500.917 500.917 0 0 0 514.821 201c1.167-10.097 1.814-20.257 2.541-30.401.666-9.295 1.425-18.598 1.612-27.909.24-11.953-1.166-23.8-4.112-35.397-3.323-13.087-6.693-26.17-10.46-39.132-1.231-4.233-3.703-8.118-5.718-12.104-3.01-5.953-7.816-8.72-14.52-7.923"/><path d="M478.603 73.086c-7.394 1.836-11.839 7.725-16.14 12.998-13.9 17.042-26.512 35.092-36.345 54.775-6.024 12.06-10.209 24.875-11.571 38.54-.743 7.451-.878 14.699.544 22.032 2.45 12.626 10.19 21.144 21.798 25.6 13.88 5.328 28.038 5.998 41.27-2.387 8.57-5.432 13.633-13.87 17.474-22.843 5.188-12.126 9.298-24.661 11.372-37.755 1.746-11.025 2.67-21.984 1.415-33.245-1.836-16.445-8.176-31.266-14.826-46.064-1.061-2.363-2.709-4.471-4.137-6.663-2.452-3.76-5.91-5.493-10.436-4.988"/><path d="M470.925 101.066c-5.085 1.384-9.176 4.369-12.944 7.92-14.875 14.02-25.745 30.552-32.192 50.039-3.767 11.385-4.744 22.87-2.847 34.638 1.446 8.967 10.117 18.845 17.94 19.962 9.875 1.41 18.744-1.147 26.289-7.861 13.499-12.012 22.112-27.253 26.924-44.274 5.039-17.817 4.073-35.408-7.275-51.273-3.873-5.416-8.119-9.81-15.478-9.151"/><path d="M465.587 125c-12.268 3-18.896 12.394-24.735 22.396-5.025 8.61-7.969 18.028-7.848 28.11.054 4.504 1.223 8.818 3.584 12.872 4.122 7.079 12.964 6.658 18.62 3.203 10.79-6.592 17.452-16.682 22.37-28.078 3.035-7.028 3.72-14.389 3.317-21.944-.462-8.665-6.247-15.156-14.894-16.559m-149.824 91c-8.924 2.487-12.068 9.387-13.934 17.36-2.409 10.286-1.553 20.02 4.66 28.945.681.98 1.269 2.068 2.127 2.874 5.825 5.477 10.273 5.077 14.657-1.272 8.976-12.998 9.485-26.745 2.647-40.895-2.013-4.164-5.189-6.411-9.735-7.012M215.237 350c-4.593 1.393-9.4 2.311-13.74 4.268-12.992 5.864-18.873 16.928-20.878 30.429-.802 5.398-1.814 10.89-1.586 16.29.685 16.302 6.27 30.237 21.182 38.859 10.698 6.185 17.314 2.847 22.033-6.298 8.258-16 14.886-32.739 17.91-50.552 2.09-12.318.925-21.584-10.84-29.048-3.844-2.438-9.07-2.694-13.663-3.948m112.071 3.009c-8.78 2.956-11.782 10.608-13.583 18.412-3.767 16.324 1.894 29.4 15.246 39.236 12.716 9.368 26.584 16.63 41.186 22.486 2.009.805 4.407.865 6.623.856 4.09-.016 6.283-2.543 6.694-6.628.616-6.129-1.47-11.702-4.319-16.645-10.62-18.43-22.846-35.752-37.763-50.983-3.665-3.744-7.925-6.93-13.668-6.734"/><path d="M209.335 378c-8.534 3.723-12.645 13.927-9.008 22.355 2.244 5.196 6.691 6.27 10.166 2.01 4.336-5.315 6.566-11.458 5.014-18.575-.716-3.28-2.48-5.245-5.762-5.79m123.915 2.009c-5.694 3.933-6.253 10.865-1.22 16.778 4.162 4.892 9.326 8.258 15.654 9.871 5.067 1.293 7.973-1.154 6.541-6.152-1.71-5.973-5.37-10.912-9.87-15.137-2.974-2.794-6.13-5.544-10.691-5.36"/><path d="M317.168 201.003c-11.124 3.08-17.116 11.39-21.626 21.248-4.552 9.95-6.218 20.466-5.299 31.247.77 9.016 3.245 17.732 7.412 25.83 4.034 7.842 8.146 15.652 12.484 23.327 4.75 8.407 5.246 17.238 2.812 26.258-2.792 10.348-6.379 20.487-8.985 30.877-2.326 9.277-3.253 18.71-1.012 28.328 2.548 10.938 8.352 19.75 17.214 26.108 9.862 7.077 20.368 13.265 30.692 19.683 7.813 4.86 15.613 9.795 23.757 14.047 3.558 1.858 7.916 2.432 11.992 2.967 3.824.502 6.692-1.476 8.758-4.877 3.425-5.637 2.98-11.508 1.624-17.527-2.718-12.06-9.202-22.282-16.285-32.034-15.578-21.448-30.961-43.006-44.437-65.876-3.627-6.154-7.188-12.568-7.612-19.614-.338-5.615 1.303-11.47 2.725-17.048 2.778-10.903 6.53-21.575 8.95-32.548 3.85-17.456 2.342-34.53-6.604-50.356-3.44-6.083-8.611-10.173-16.144-10.04M156.148 201c-3.594 1.388-7.664 2.115-10.69 4.299-6.82 4.924-8.36 12.587-7.013 20.25 3.317 18.876 17.285 30.932 34.329 34.432 5.602 1.15 11.753 1.393 17.357.388 14.04-2.519 18.12-13.264 12.313-25.555-7.346-15.552-19.18-26.853-35.945-32.085-3.182-.994-6.617-1.173-9.936-1.729"/><path d="M154.065 193c-4.4 1.25-8.996 1.516-12.975 4.478-5.758 4.287-9.195 9.808-9.849 16.72-1.896 20.022 7.54 34.455 23.224 45.719 9.25 6.643 19.726 9.64 30.815 11.243 7.726 1.116 15.3 1.378 22.915-.836 11.217-3.26 15.335-11.43 13.307-22.062-1.627-8.532-6.048-15.728-11.276-22.408-9.53-12.18-21.426-21.58-35.38-28.212-6.358-3.022-13.249-4.529-20.365-4.642m4.096 397c-13.399 3.046-22.02 12.533-30.361 22.437-7.154 8.497-14.272 17.03-21.642 25.338-8.593 9.685-19.57 16.355-30.294 23.343-6.554 4.27-12.74 9.134-17.02 15.792-7.821 12.17-4.199 24.007 5.39 32.354 7.094 6.176 16.002 8.84 24.935 10.279 18.19 2.928 31.306 12.143 39.037 28.845 5.236 11.312 10.177 22.76 15.429 34.065 7.007 15.083 13.685 30.342 25.72 42.443 16.093 16.179 36.524 16.562 54.806 5.611 7.706-4.616 14.395-11.006 21.273-16.907 9.982-8.565 19.722-17.41 29.554-26.148 9.717-8.636 14.845-19.548 15.768-32.426.466-6.499 1.038-13.042.75-19.53-.367-8.333-1.357-16.656-2.432-24.94-1.157-8.897-2.966-17.712-4.04-26.618-1.13-9.386-1.54-18.859-2.609-28.253-1.296-11.39-1.758-22.9-6.526-33.711-5.609-12.723-19.617-23.197-33.34-23.066-9.944.097-18.815 3.083-27.366 7.045-10.893 5.049-19.903 3.026-28.356-4.716-4.888-4.479-10.097-8.687-16.647-10.29-3.725-.914-7.732-.67-11.613-.947"/><path d="M156.367 606c-8.15.41-14.175 4.995-19.522 10.468-6.317 6.462-11.906 13.668-18.463 19.858-7.94 7.496-16.44 14.423-24.932 21.306-7.31 5.924-15.233 11.117-22.312 17.291-2.902 2.53-4.97 6.563-6.242 10.311-2.567 7.572.491 14.325 7.751 19.983 6.048 4.713 13.293 6.137 20.43 7.875 10.828 2.636 21.247 5.999 28.728 15.02 5.517 6.655 9.423 14.242 12.92 22.086 8.88 19.928 16.082 40.664 28.682 58.796 5.068 7.293 10.94 13.656 18.797 17.858 12.616 6.749 25 4.938 36.066-3.08 5.942-4.303 11.353-10.024 15.366-16.175 10.02-15.361 21.23-29.565 34.718-42.006 8.222-7.583 12.422-17.242 13.81-28.304 1.404-11.182.972-22.235-.79-33.36-1.508-9.521-2.147-19.18-3.45-28.738-1.8-13.183-1.457-26.614-4.913-39.612-2.19-8.238-6.067-15.183-12.935-20.435-8.522-6.518-19.6-6.001-29.547.09-7.416 4.54-14.223 10.104-21.756 14.415-10.145 5.807-20.411 5.006-29.556-6.517-3.842-4.84-8.106-9.382-12.502-13.732-2.612-2.581-6.3-3.19-9.93-3.398"/><path d="M245.271 625.026c-9.8 2.611-16.728 9.793-24.637 15.427-6.112 4.352-12.422 8.162-20.013 9.686-10.516 2.11-20.014.4-28.37-6.374-3.664-2.972-7.083-6.263-10.447-9.578-8.102-7.984-15.508-7.668-24.154-1.544-6.914 4.898-13.055 10.87-19.718 16.138-10.349 8.179-20.873 16.133-31.265 24.257-2.087 1.631-4.086 3.44-5.835 5.424-8.116 9.211-5.9 19.28 5.835 23.707 5.59 2.11 11.403 3.63 17.093 5.485 11.185 3.648 20.035 10.323 25.398 20.89 4.364 8.596 8.324 17.411 12.134 26.27 8.043 18.703 15.559 37.664 28.428 53.809 4.681 5.872 10.314 10.569 17.54 12.9 9.953 3.213 18.854 1.138 26.718-5.787 7.25-6.387 11.79-14.66 16.237-22.981 4.94-9.24 10.58-17.906 17.927-25.49 6.369-6.575 12.731-13.245 18.3-20.486 6.103-7.934 8.34-17.392 8.53-27.448.248-13.08-1.174-25.95-3.328-38.82-1.759-10.509-2.572-21.178-4.344-31.684-1.309-7.758-3.49-15.257-10.282-20.54-3.491-2.714-7.19-3.442-11.33-3.26"/><path d="M243.743 645.051c-9.193 2.036-16.412 8.074-24.593 12.15-9.819 4.892-19.95 8.259-30.95 7.71-10.031-.501-19.473-3.664-28.397-8.235-6.045-3.096-12.083-6.589-19.195-4.88-4.165 1.001-8.592 2.242-12.041 4.612-9.849 6.765-19.602 13.683-27.762 22.63-4.105 4.502-3.86 10.916 1.767 13.822 1.991 1.029 3.857 2.3 5.862 3.297 13.246 6.6 21.697 17.378 27.132 30.775 6.291 15.507 12.018 31.265 18.977 46.468 4.874 10.647 10.882 20.99 19.156 29.472 5.398 5.533 11.79 10.196 20.345 10.127 5.018-.04 9.22-1.937 12.93-5.04 6.065-5.07 9.82-11.798 13.402-18.675 7.74-14.863 17.096-28.529 29.14-40.4 8.581-8.457 15.373-18.302 16.678-30.693.709-6.729 1.224-13.679.332-20.33-1.556-11.588-4.08-23.064-6.596-34.501-.912-4.152-2.52-8.304-4.612-12.007-2.295-4.06-5.98-6.764-11.157-6.302"/><path d="M235.249 668.065c-9.741 2.64-19.405 5.62-29.245 7.818-8.917 1.993-18.011 1.974-27.122.583-5.93-.905-11.947-1.355-17.943-1.678-4.996-.268-10.094-.618-15.008.066-9.345 1.3-16.632 7.975-12.963 19.884 3.08 9.996 5.962 20.056 9.231 29.989 3.996 12.144 7.807 24.387 12.614 36.217 5.347 13.157 12.07 25.638 22.803 35.502 9.997 9.185 21.217 8.943 29.162-2.17 4.633-6.48 8.533-13.495 12.586-20.373 7.106-12.065 15.647-23.064 24.641-33.75 6.098-7.245 11.126-15.108 12.93-24.584 2.798-14.685.01-28.426-7.516-41.239-3.064-5.217-8.025-6.675-13.752-6.265"/><path d="M223.435 687c-.833.278-1.661.778-2.5.798-12.779.326-25.585 1.179-38.326.614-6.268-.277-12.29.049-18.34 1.12-10.697 1.89-16.168 8.62-16.266 19.515-.137 15.233 3.843 29.61 9.21 43.664 3.734 9.777 8.434 19.04 15.345 27.084 3.533 4.114 7.316 7.874 12.559 9.473 7.554 2.303 13.35-1.037 17.413-7.058 7.468-11.065 14.52-22.413 21.737-33.646 4.452-6.929 8.839-13.9 13.35-20.79 4.905-7.49 7.1-15.689 6.177-24.545-.69-6.62-5.577-15.45-14.942-15.437-1.666.003-3.334-.514-5-.792"/><path d="M175.89 700.054c-3.75 1.53-8.002 2.383-11.152 4.723-7.775 5.78-8.257 14.65-7.462 23.218.995 10.72 4.087 20.99 9.432 30.478 3.16 5.609 6.724 10.72 12.033 14.681 5.707 4.258 12.821 3.665 18.03-1.289 5.477-5.206 9.26-11.519 12.854-18 4.877-8.796 9.188-17.812 12.18-27.501 4.205-13.617-3.266-20.183-13.389-23.061-10.57-3.008-21.274-3.491-32.11-3.249"/><path d="M182.365 713c-3.173 1.26-6.836 1.88-9.414 3.918-5.05 3.991-6.44 10.061-5.81 16.242.904 8.876 3.702 16.907 10.116 23.678 3.85 4.064 11.484 4.271 15.44.27 5.98-6.046 9.364-13.34 10.877-21.819 1.291-7.235-.258-13.26-5.968-17.571-4.252-3.209-9.48-4.441-14.827-4.718m136.108-522.95c-16.933 4.427-25.149 17.41-31.745 32.025-4.245 9.409-6.401 19.328-7.037 29.543-.77 12.356 2.82 24.014 7.175 35.306 3.586 9.298 7.356 18.463 9.071 28.333 1.326 7.637.988 15.253-.008 22.881-1.646 12.604-5.14 24.954-4.654 37.856.49 12.991 4.921 24.176 13.814 33.713 7.5 8.043 16.662 13.795 25.883 19.573 12.776 8.007 25.324 16.372 38.046 24.466 3.616 2.3 7.562 4.081 11.234 6.301 4.43 2.68 9.235 3.19 14.213 2.867 5.07-.33 10.665-5.906 12.066-12.472 2.545-11.929.323-23.197-4.92-34.123-6.53-13.612-16.12-25.163-24.68-37.417-11.739-16.806-22.972-33.855-29.287-53.642-3.67-11.497-4.848-23.086-2.842-34.955 1.692-10.004 3.599-19.97 5.403-29.955 3.015-16.68 1.12-32.729-5.772-48.285-2.46-5.555-4.995-10.94-9.258-15.36-4.445-4.609-9.761-7.096-16.284-6.655"/><path d="M319.27 181c-16.076 4.268-26.16 15.544-34.24 29.124-7.63 12.824-12.603 26.626-15.984 41.153-2.87 12.333.696 23.589 4.298 34.963 2.992 9.45 6.498 18.759 9.057 28.321 2.3 8.59 1.54 17.413.163 26.184-1.54 9.802-4.108 19.45-3.863 29.53.347 14.208 5.614 26.434 14.261 37.432 9.16 11.651 22.069 18.424 34.204 26.271 13.534 8.751 26.726 18.03 40.154 26.948 5.3 3.52 10.871 6.632 16.257 10.03 4.794 3.026 10.134 3.393 15.453 2.814 7.002-.763 11.006-5.86 13.69-11.612 3.813-8.164 3.748-17.001 2.568-25.739-2.423-17.93-12.109-32.455-22.517-46.593-11.089-15.061-21.95-30.262-29.649-47.425-4.593-10.24-7.688-20.84-9.302-32.014-2.343-16.204 1.772-31.56 5.22-47.001 1.969-8.819 4.07-17.605 3.121-26.631-.562-5.341-1.879-10.734-3.738-15.782-3.747-10.17-8.12-20.12-14.947-28.728-4.139-5.22-8.765-9.89-15.858-10.797-2.62-.336-5.285-.31-7.93-.448M155.36 211.042c-8.026 1.981-11.152 9.995-8.356 18.505 4.075 12.403 16.34 20.811 29.4 19.271 9.112-1.073 13.442-6.81 10.856-15.516-3.28-11.034-11.417-17.973-22.258-21.723-2.789-.965-6.132-.4-9.22-.537"/></g></svg>